<!--?xml version="1.0" encoding="utf-8"?-->
<!-- Generator: Adobe Illustrator 18.1.1, SVG Export Plug-In . SVG Version: 6.00 Build 0)  -->

<svg version="1.1" id="_x31_0" xmlns="http://www.w3.org/2000/svg" xmlns:xlink="http://www.w3.org/1999/xlink" x="0px" y="0px" viewBox="0 0 512 512" style="width: 256px; height: 256px; opacity: 1;" xml:space="preserve">
<style type="text/css">
	.st0{fill:#1DA1F2;}
</style>
<g>
	<path class="st0" d="M316.474,300.955l12.481,34.401l91.556-74.981l3.77-3.074l-0.008-0.004l0.125-0.102l-62.511-70.489
		c-0.286-0.375-0.446-0.82-0.566-1.289c-0.028-0.094-0.074-0.18-0.09-0.282c-0.726-3.879,3.207-10.246,4.266-13.212
		c2.386-6.688,4.164-13.622,4.317-20.758c0.179-8.61-2.165-17.017-6.985-24.182c-3.426-5.094-12.106-13.754-16.4-4.457
		l-29.794,50.741c-1.539,3.266-7.997,1.993-10.985,2.168c-4.352,0.25-8.685,0.918-12.903,2.008
		c-11.845,3.063-22.514,9.563-30.405,18.95c-5.145,6.126-8.977,13.235-11.774,20.705c-2.09,5.586-1.926,7.289-7.727,8.914
		c-5.734,1.606-11.782,2.527-17.606,3.762c-9.638,2.039-19.282,4.059-28.927,6.067c-2.673,0.554-15.689,1.609-15.251,6.359
		c0,0.004,0,0.008,0,0.008c0.046,0.461,0.05,0.906,0.367,1.438c11.946,22.775,32.522,40.44,56.937,48.577
		c14.692,4.899,30.346,6.516,45.753,6.982c2.645,0.078,5.29-0.047,7.938-0.043c0.149,0,0.301,0.008,0.45,0.008
		c0.211,0,0.422-0.012,0.629-0.012c3.68-0.008,7.36,0.086,11.036-0.058C307.13,298.986,315.247,297.08,316.474,300.955z
		 M282.484,220.775c0.042-0.333,0.098-0.653,0.164-0.977c0.238-1.188,0.633-2.329,1.18-3.395c0.164-0.324,0.343-0.633,0.535-0.938
		c1.949-3.098,5.293-5.32,10.11-5.317c16.185,0.02,16.154,24.963,0,24.963C285.586,235.112,281.605,227.568,282.484,220.775z"></path>
	<path class="st0" d="M347.586,16.942C318.365,5.719,287.125,0,255.83,0c-28.15,0-55.64,4.79-81.532,13.657
		C122.439,31.26,77.214,65.183,45.826,110.022c-15.755,22.38-28.037,47.444-35.89,74.496c-9.598,33.053-11.977,67.09-8.062,100.166
		c4.946,42.456,20.427,83.197,44.917,118.261c18.938,27.225,43.15,51.038,72.054,69.383
		c57.629,36.577,129.172,48.663,195.629,32.904c25.134-4.84,51.386-15.868,72.962-29.603c7.196-4.246,13.978-9.039,20.802-13.841
		c28.838-21.868,53.226-48.991,70.969-80.602c8.731-15.551,15.837-32.01,21.134-49.042c5.203-16.743,10.462-35.885,10.462-53.566
		C521.682,166.209,452.49,57.242,347.586,16.942z M249.591,447.8c-6.856-0.25-13.684-0.894-20.466-1.871
		c-1.316-0.191-2.637-0.348-3.945-0.566c-3.192-0.523-6.364-1.153-9.521-1.836c-1.934-0.422-3.851-0.898-5.77-1.379
		c-4.485-1.117-8.918-2.398-13.314-3.828c-2.566-0.836-5.137-1.653-7.664-2.594c-2.594-0.965-5.153-2.035-7.704-3.11
		c-2.191-0.922-4.359-1.89-6.512-2.894c-2.562-1.191-5.129-2.367-7.641-3.672c-1.817-0.942-3.57-2-5.36-2.996
		c-4.782-2.68-9.462-5.544-14.009-8.634c-1.297-0.875-2.59-1.754-3.859-2.66c-2.844-2.036-5.657-4.126-8.391-6.325
		c-0.594-0.477-1.164-0.989-1.75-1.473c-2.812-2.317-5.594-4.68-8.278-7.165c-46.264-42.893-68.855-107.084-59.445-169.502
		C75.3,165.358,115.755,110.714,172.016,83.29c57.355-27.951,126.695-25.064,181.542,7.512
		c61.668,36.627,98.701,106.37,93.786,178.006l-12.383,0.625l-99.986,81.564l8.012,22.067c3.27,10.552,3.594,12.306,3.922,14.099
		l0.446,25.72l0.078,6.958l0.078,4.734c-10.723,5.879-22.056,10.77-33.92,14.493c-20.208,6.52-41.198,9.368-62.027,8.825
		C250.904,447.878,250.247,447.823,249.591,447.8z"></path>
	<path class="st0" d="M142.647,244.358c0.715-2.711-0.793-5.508-3.446-6.403l-30.154-10.106c-2.91-0.977-6.043,0.711-6.825,3.68
		l-1.055,3.973c-0.785,2.969,1.102,5.981,4.114,6.578l31.206,6.13C139.233,248.753,141.933,247.07,142.647,244.358z"></path>
	<path class="st0" d="M143.194,297.986l-28.466,14.173c-2.754,1.367-3.774,4.77-2.231,7.422l2.07,3.558
		c1.539,2.649,5.009,3.45,7.555,1.738l26.404-17.727C153.87,303.565,148.956,295.111,143.194,297.986z"></path>
	<path class="st0" d="M164.649,164.229c-1.367-2.75-4.774-3.774-7.43-2.227l-3.554,2.063c-2.657,1.546-3.454,5.008-1.742,7.558
		l17.731,26.4c3.59,5.356,12.04,0.438,9.169-5.328L164.649,164.229z"></path>
</g>
</svg>
